<svg width="12" height="12" viewBox="0 0 12 12" fill="none" xmlns="http://www.w3.org/2000/svg">
<path d="M10.5857 11.2929L6.35347 7.06064L5.99992 6.70706L5.64638 7.06064L1.41411 11.2929L0.707031 10.5858L4.9393 6.35355L5.29285 6L4.9393 5.64645L0.707031 1.41418L1.41411 0.707092L5.64638 4.93936L5.99992 5.29294L6.35347 4.93936L10.5857 0.707092L11.2928 1.41418L7.06055 5.64645L6.707 6L7.06055 6.35355L11.2928 10.5858L10.5857 11.2929Z" fill="white"/>
<path d="M1.41418 0L6 4.58582L10.5858 0L12 1.41418L7.41418 6L12 10.5858L10.5858 12L6 7.41418L1.41418 12L0 10.5858L4.58582 6L0 1.41418L1.41418 0Z" fill="#ABB2BE"/>
</svg>
