<svg width="80" height="80" viewBox="0 0 80 80" fill="none" xmlns="http://www.w3.org/2000/svg">
    <circle cx="40" cy="40" r="39.5" fill="#fff" fill-opacity=".8" stroke="#CCD1D8"/>
    <path d="M27.523 28.474v18.05c0 1.356.06 2.224.18 2.604.119.37.368.673.748.912.38.238.987.358 1.823.358h.504V51h-11.62v-.602h.585c.944 0 1.617-.109 2.018-.326.402-.217.673-.515.814-.895.141-.38.212-1.264.212-2.653V35.082c0-1.02-.049-1.655-.147-1.904a1.324 1.324 0 0 0-.553-.651 1.536 1.536 0 0 0-.912-.277c-.553 0-1.226.174-2.018.52l-.293-.585 8.122-3.711h.537zm6.836 22.982V51c1.801-.412 3.326-1.02 4.574-1.823 1.258-.803 2.251-1.796 2.978-2.978.738-1.183 1.253-2.545 1.546-4.086-.672.348-1.248.592-1.725.733-.466.13-.96.195-1.481.195-1.671 0-3.065-.602-4.183-1.807-1.107-1.204-1.66-2.853-1.66-4.948 0-1.453.298-2.783.895-3.987.608-1.215 1.47-2.154 2.588-2.816 1.118-.673 2.279-1.009 3.483-1.009 1.291 0 2.512.369 3.662 1.107s2.067 1.806 2.75 3.206c.684 1.4 1.026 2.995 1.026 4.785 0 2.322-.559 4.547-1.676 6.673-1.107 2.127-2.762 3.836-4.964 5.127-2.203 1.28-4.807 1.975-7.813 2.084zm9.343-10.71c.108-1.215.162-2.284.162-3.206 0-1.975-.228-3.814-.683-5.518-.26-.944-.646-1.638-1.156-2.083-.271-.239-.624-.358-1.058-.358-.542 0-.966.233-1.27.7-.423.64-.634 1.86-.634 3.662 0 3.005.358 5.078 1.074 6.217.467.738 1.096 1.107 1.888 1.107.423 0 .982-.174 1.677-.52z" fill="#1B1E23"/>
    <path fill-rule="evenodd" clip-rule="evenodd" d="M63.334 40.833h-10v-1.667h10v1.667z" fill="#1B1E23"/>
    <path fill-rule="evenodd" clip-rule="evenodd" d="M57.5 45V35h1.667v10H57.5z" fill="#1B1E23"/>
</svg>
