<svg width="14" height="12" viewBox="0 0 14 12" fill="none" xmlns="http://www.w3.org/2000/svg">
<path d="M7.1125 8.65015C7.38703 7.87335 8.1279 7.31681 8.9987 7.31681C9.8695 7.31681 10.6104 7.87335 10.8849 8.65015H13.6654V9.98348H10.8849C10.6104 10.7603 9.8695 11.3168 8.9987 11.3168C8.1279 11.3168 7.38703 10.7603 7.1125 9.98348H0.332031V8.65015H7.1125ZM3.1125 1.98348C3.38706 1.20669 4.12788 0.650146 4.9987 0.650146C5.8695 0.650146 6.61037 1.20669 6.8849 1.98348H13.6654V3.31681H6.8849C6.61037 4.09361 5.8695 4.65015 4.9987 4.65015C4.12788 4.65015 3.38706 4.09361 3.1125 3.31681H0.332031V1.98348H3.1125ZM4.9987 3.31681C5.36688 3.31681 5.66536 3.01833 5.66536 2.65015C5.66536 2.28196 5.36688 1.98348 4.9987 1.98348C4.63051 1.98348 4.33203 2.28196 4.33203 2.65015C4.33203 3.01833 4.63051 3.31681 4.9987 3.31681ZM8.9987 9.98348C9.3669 9.98348 9.66537 9.68501 9.66537 9.31681C9.66537 8.94861 9.3669 8.65015 8.9987 8.65015C8.6305 8.65015 8.33203 8.94861 8.33203 9.31681C8.33203 9.68501 8.6305 9.98348 8.9987 9.98348Z" fill="#5C6677"/>
</svg>
